<mxfile host="Electron" modified="2024-01-29T19:28:24.820Z" agent="Mozilla/5.0 (Windows NT 10.0; Win64; x64) AppleWebKit/537.36 (KHTML, like Gecko) draw.io/22.0.3 Chrome/114.0.5735.289 Electron/25.8.4 Safari/537.36" version="22.0.3" etag="N4KYzUVBtpVJNaV1jp7f" type="device">
  <diagram id="AKeManEJpfUcsRqSmMtN" name="Page-1">
    <mxGraphModel dx="1276" dy="606" grid="1" gridSize="10" guides="1" tooltips="1" connect="1" arrows="1" fold="1" page="1" pageScale="1" pageWidth="850" pageHeight="1100" math="0" shadow="0">
      <root>
        <mxCell id="0" />
        <mxCell id="1" parent="0" />
        <mxCell id="YN_EUbYMP-ZZnDFo-E06-1" style="edgeStyle=orthogonalEdgeStyle;rounded=0;orthogonalLoop=1;jettySize=auto;html=1;entryX=0;entryY=0.5;entryDx=0;entryDy=0;" edge="1" parent="1" source="YN_EUbYMP-ZZnDFo-E06-2" target="YN_EUbYMP-ZZnDFo-E06-4">
          <mxGeometry relative="1" as="geometry" />
        </mxCell>
        <mxCell id="YN_EUbYMP-ZZnDFo-E06-2" value="3.0&amp;nbsp;&lt;br&gt;News and Headlines" style="ellipse;whiteSpace=wrap;html=1;aspect=fixed;" vertex="1" parent="1">
          <mxGeometry x="180" y="680" width="80" height="80" as="geometry" />
        </mxCell>
        <mxCell id="YN_EUbYMP-ZZnDFo-E06-3" style="edgeStyle=orthogonalEdgeStyle;rounded=0;orthogonalLoop=1;jettySize=auto;html=1;" edge="1" parent="1" source="YN_EUbYMP-ZZnDFo-E06-4" target="YN_EUbYMP-ZZnDFo-E06-8">
          <mxGeometry relative="1" as="geometry" />
        </mxCell>
        <mxCell id="YN_EUbYMP-ZZnDFo-E06-4" value="2.1&lt;br&gt;Word&lt;br&gt;Tokenization" style="ellipse;whiteSpace=wrap;html=1;aspect=fixed;" vertex="1" parent="1">
          <mxGeometry x="320" y="680" width="80" height="80" as="geometry" />
        </mxCell>
        <mxCell id="YN_EUbYMP-ZZnDFo-E06-5" style="edgeStyle=orthogonalEdgeStyle;rounded=0;orthogonalLoop=1;jettySize=auto;html=1;entryX=1;entryY=0.5;entryDx=0;entryDy=0;" edge="1" parent="1" source="YN_EUbYMP-ZZnDFo-E06-6" target="YN_EUbYMP-ZZnDFo-E06-10">
          <mxGeometry relative="1" as="geometry" />
        </mxCell>
        <mxCell id="YN_EUbYMP-ZZnDFo-E06-6" value="2.3&lt;br&gt;Lemmatization" style="ellipse;whiteSpace=wrap;html=1;aspect=fixed;" vertex="1" parent="1">
          <mxGeometry x="460" y="800" width="80" height="80" as="geometry" />
        </mxCell>
        <mxCell id="YN_EUbYMP-ZZnDFo-E06-7" style="edgeStyle=orthogonalEdgeStyle;rounded=0;orthogonalLoop=1;jettySize=auto;html=1;entryX=0.5;entryY=0;entryDx=0;entryDy=0;" edge="1" parent="1" source="YN_EUbYMP-ZZnDFo-E06-8" target="YN_EUbYMP-ZZnDFo-E06-6">
          <mxGeometry relative="1" as="geometry" />
        </mxCell>
        <mxCell id="YN_EUbYMP-ZZnDFo-E06-8" value="2.2&lt;br&gt;Stemming" style="ellipse;whiteSpace=wrap;html=1;aspect=fixed;" vertex="1" parent="1">
          <mxGeometry x="460" y="680" width="80" height="80" as="geometry" />
        </mxCell>
        <mxCell id="YN_EUbYMP-ZZnDFo-E06-9" style="edgeStyle=orthogonalEdgeStyle;rounded=0;orthogonalLoop=1;jettySize=auto;html=1;entryX=1;entryY=0.5;entryDx=0;entryDy=0;" edge="1" parent="1" source="YN_EUbYMP-ZZnDFo-E06-10" target="YN_EUbYMP-ZZnDFo-E06-12">
          <mxGeometry relative="1" as="geometry" />
        </mxCell>
        <mxCell id="YN_EUbYMP-ZZnDFo-E06-10" value="2.4&lt;br&gt;Stop word analysis" style="ellipse;whiteSpace=wrap;html=1;aspect=fixed;" vertex="1" parent="1">
          <mxGeometry x="320" y="800" width="80" height="80" as="geometry" />
        </mxCell>
        <mxCell id="YN_EUbYMP-ZZnDFo-E06-11" style="edgeStyle=orthogonalEdgeStyle;rounded=0;orthogonalLoop=1;jettySize=auto;html=1;" edge="1" parent="1" source="YN_EUbYMP-ZZnDFo-E06-12">
          <mxGeometry relative="1" as="geometry">
            <mxPoint x="220" y="920" as="targetPoint" />
          </mxGeometry>
        </mxCell>
        <mxCell id="YN_EUbYMP-ZZnDFo-E06-12" value="2.5&lt;br&gt;Dependency parsing" style="ellipse;whiteSpace=wrap;html=1;aspect=fixed;" vertex="1" parent="1">
          <mxGeometry x="180" y="800" width="80" height="80" as="geometry" />
        </mxCell>
        <mxCell id="YN_EUbYMP-ZZnDFo-E06-15" value="2.7&lt;br&gt;Sentiment Generation" style="ellipse;whiteSpace=wrap;html=1;aspect=fixed;" vertex="1" parent="1">
          <mxGeometry x="180" y="920" width="80" height="80" as="geometry" />
        </mxCell>
        <mxCell id="YN_EUbYMP-ZZnDFo-E06-16" value="Headlines" style="text;html=1;strokeColor=none;fillColor=none;align=center;verticalAlign=middle;whiteSpace=wrap;rounded=0;" vertex="1" parent="1">
          <mxGeometry x="260" y="690" width="60" height="30" as="geometry" />
        </mxCell>
        <mxCell id="YN_EUbYMP-ZZnDFo-E06-17" value="Tokenized data" style="text;html=1;strokeColor=none;fillColor=none;align=center;verticalAlign=middle;whiteSpace=wrap;rounded=0;" vertex="1" parent="1">
          <mxGeometry x="400" y="690" width="60" height="30" as="geometry" />
        </mxCell>
        <mxCell id="YN_EUbYMP-ZZnDFo-E06-18" value="Stemmed words" style="text;html=1;strokeColor=none;fillColor=none;align=center;verticalAlign=middle;whiteSpace=wrap;rounded=0;" vertex="1" parent="1">
          <mxGeometry x="500" y="760" width="60" height="30" as="geometry" />
        </mxCell>
        <mxCell id="YN_EUbYMP-ZZnDFo-E06-19" value="Lemmatized&lt;br&gt;words" style="text;html=1;strokeColor=none;fillColor=none;align=center;verticalAlign=middle;whiteSpace=wrap;rounded=0;" vertex="1" parent="1">
          <mxGeometry x="400" y="810" width="60" height="30" as="geometry" />
        </mxCell>
        <mxCell id="YN_EUbYMP-ZZnDFo-E06-21" value="Data w/o stop words" style="text;html=1;strokeColor=none;fillColor=none;align=center;verticalAlign=middle;whiteSpace=wrap;rounded=0;" vertex="1" parent="1">
          <mxGeometry x="260" y="800" width="60" height="30" as="geometry" />
        </mxCell>
        <mxCell id="YN_EUbYMP-ZZnDFo-E06-22" value="Parsed data" style="text;html=1;strokeColor=none;fillColor=none;align=center;verticalAlign=middle;whiteSpace=wrap;rounded=0;" vertex="1" parent="1">
          <mxGeometry x="220" y="880" width="60" height="30" as="geometry" />
        </mxCell>
      </root>
    </mxGraphModel>
  </diagram>
</mxfile>
